<svg version="1.1" id="Layer_1" xmlns="http://www.w3.org/2000/svg" xmlns:xlink="http://www.w3.org/1999/xlink" x="0px" y="0px"
	 width="100%" viewBox="0 0 500 500" enable-background="new 0 0 500 500" xml:space="preserve">
<path fill="none" opacity="1.000000" stroke="none" 
	d="
M276.000000,501.000000 
	C184.000015,501.000000 92.500046,501.000000 1.000049,501.000000 
	C1.000033,334.333405 1.000033,167.666794 1.000016,1.000139 
	C167.666565,1.000092 334.333130,1.000092 500.999756,1.000046 
	C500.999847,167.666519 500.999847,334.333038 500.999939,500.999786 
	C426.166656,501.000000 351.333344,501.000000 276.000000,501.000000 
M151.160187,409.359161 
	C163.634888,416.581512 176.886627,421.908142 190.938217,425.062042 
	C198.554688,426.771545 206.268997,428.177551 214.010254,429.161102 
	C221.594559,430.124725 229.272980,430.330627 236.902786,430.958038 
	C244.357559,431.571045 251.803909,430.661041 259.255951,430.678040 
	C272.686737,430.708710 286.248596,429.779114 299.529175,427.760254 
	C330.260132,423.088623 357.382935,410.444427 379.962677,388.677338 
	C398.075104,371.216705 410.791321,349.978638 423.016205,328.296783 
	C432.895844,310.774536 442.780029,293.186859 453.913208,276.460968 
	C462.761444,263.167786 475.662842,254.570938 491.993866,252.148163 
	C493.034393,251.993805 494.015991,251.442444 495.062531,251.062134 
	C494.831940,250.185898 494.852692,249.568787 494.555023,249.281174 
	C493.971008,248.716934 493.240692,248.278931 492.517395,247.887711 
	C464.275909,232.611969 434.197174,224.973236 402.111664,228.348892 
	C338.440186,235.047653 280.661194,283.711487 262.643402,345.051941 
	C261.475525,349.027985 260.292633,353.120972 260.093384,357.207214 
	C259.998749,359.147705 261.778534,362.174011 263.492340,362.927795 
	C265.195435,363.676941 268.194366,362.696991 270.048218,361.546082 
	C271.923431,360.381989 273.151154,358.124176 274.560303,356.267822 
	C290.706390,334.997284 310.553192,318.462433 335.568207,308.534882 
	C336.848755,308.026672 338.186584,307.662781 340.679535,306.843140 
	C340.679535,313.218414 340.944183,318.706757 340.633301,324.162354 
	C339.347687,346.723602 330.032196,365.827362 315.139313,382.477509 
	C297.967255,401.675781 276.144073,413.901855 252.917297,424.018402 
	C252.304214,424.285431 251.343521,424.265503 250.742767,423.973022 
	C242.073578,419.752228 233.193222,415.889648 224.841782,411.106171 
	C201.528259,397.752838 182.121506,380.395782 170.748199,355.415619 
	C163.769348,340.087402 161.282257,324.082825 164.167801,307.279022 
	C180.853104,312.189728 202.782867,326.429321 216.179718,341.231628 
	C221.765900,347.403900 227.022446,353.877014 232.357376,360.272949 
	C234.535187,362.883881 236.834961,364.918640 240.454193,363.151459 
	C244.178085,361.333282 244.452072,358.208710 243.482941,354.650360 
	C243.046295,353.047150 242.792740,351.394165 242.358521,349.790192 
	C231.420334,309.382324 207.612595,277.993774 173.260986,255.007004 
	C121.319443,220.249756 67.204338,218.995789 12.013821,247.447571 
	C10.810831,248.067719 9.945930,249.343704 8.923320,250.313751 
	C10.250102,251.005783 11.509498,252.084564 12.914210,252.329330 
	C25.383301,254.501923 36.000584,260.297729 44.141045,269.774597 
	C50.618748,277.315765 56.693321,285.382751 61.755470,293.922546 
	C72.022133,311.242249 81.159508,329.229462 91.350716,346.596252 
	C106.210815,371.919312 124.711533,393.971924 151.160187,409.359161 
M280.658478,163.162201 
	C266.366119,181.119781 254.882996,200.621262 247.187057,223.203430 
	C281.536530,220.781219 311.920380,211.222382 334.415039,184.664597 
	C358.312042,156.451187 362.497192,122.841972 359.670258,86.997810 
	C319.005371,89.860153 284.929718,104.343109 260.002258,137.141602 
	C241.131485,161.970963 234.400436,199.839035 237.833313,215.656357 
	C251.859344,187.235260 271.177246,163.341385 295.518860,143.598526 
	C295.937042,143.944427 296.355225,144.290344 296.773407,144.636246 
	C291.545166,150.623047 286.316956,156.609848 280.658478,163.162201 
M160.271637,162.130005 
	C169.254166,195.364624 192.937393,212.381912 225.155701,221.087357 
	C224.997726,209.507797 222.585526,198.971146 217.594711,189.327408 
	C212.706650,179.882233 206.715683,171.007843 200.814301,161.229248 
	C213.295135,171.195694 221.659821,183.678238 228.417221,197.646057 
	C230.463837,188.253983 232.440735,179.502686 234.219131,170.711227 
	C234.522751,169.210297 234.339737,167.393341 233.771103,165.965485 
	C220.805710,133.409088 195.560852,116.097160 162.062500,108.092606 
	C157.317566,126.036667 156.208542,143.568573 160.271637,162.130005 
z"/>
<path fill="currentColor" opacity="1.000000" stroke="none" 
	d="
M150.840149,409.180237 
	C124.711533,393.971924 106.210815,371.919312 91.350716,346.596252 
	C81.159508,329.229462 72.022133,311.242249 61.755470,293.922546 
	C56.693321,285.382751 50.618748,277.315765 44.141045,269.774597 
	C36.000584,260.297729 25.383301,254.501923 12.914210,252.329330 
	C11.509498,252.084564 10.250102,251.005783 8.923317,250.313751 
	C9.945930,249.343704 10.810831,248.067719 12.013821,247.447571 
	C67.204338,218.995789 121.319443,220.249756 173.260986,255.007004 
	C207.612595,277.993774 231.420334,309.382324 242.358521,349.790192 
	C242.792740,351.394165 243.046295,353.047150 243.482941,354.650360 
	C244.452072,358.208710 244.178085,361.333282 240.454193,363.151459 
	C236.834961,364.918640 234.535187,362.883881 232.357376,360.272949 
	C227.022446,353.877014 221.765900,347.403900 216.179718,341.231628 
	C202.782867,326.429321 180.853104,312.189728 164.167801,307.279022 
	C161.282257,324.082825 163.769348,340.087402 170.748199,355.415619 
	C182.121506,380.395782 201.528259,397.752838 224.841782,411.106171 
	C233.193222,415.889648 242.073578,419.752228 250.742767,423.973022 
	C251.343521,424.265503 252.304214,424.285431 252.917297,424.018402 
	C276.144073,413.901855 297.967255,401.675781 315.139313,382.477509 
	C330.032196,365.827362 339.347687,346.723602 340.633301,324.162354 
	C340.944183,318.706757 340.679535,313.218414 340.679535,306.843140 
	C338.186584,307.662781 336.848755,308.026672 335.568207,308.534882 
	C310.553192,318.462433 290.706390,334.997284 274.560303,356.267822 
	C273.151154,358.124176 271.923431,360.381989 270.048218,361.546082 
	C268.194366,362.696991 265.195435,363.676941 263.492340,362.927795 
	C261.778534,362.174011 259.998749,359.147705 260.093384,357.207214 
	C260.292633,353.120972 261.475525,349.027985 262.643402,345.051941 
	C280.661194,283.711487 338.440186,235.047653 402.111664,228.348892 
	C434.197174,224.973236 464.275909,232.611969 492.517395,247.887711 
	C493.240692,248.278931 493.971008,248.716934 494.555023,249.281174 
	C494.852692,249.568787 494.831940,250.185898 495.062531,251.062134 
	C494.015991,251.442444 493.034393,251.993805 491.993866,252.148163 
	C475.662842,254.570938 462.761444,263.167786 453.913208,276.460968 
	C442.780029,293.186859 432.895844,310.774536 423.016205,328.296783 
	C410.791321,349.978638 398.075104,371.216705 379.962677,388.677338 
	C357.382935,410.444427 330.260132,423.088623 299.529175,427.760254 
	C286.248596,429.779114 272.686737,430.708710 259.255951,430.678040 
	C251.803909,430.661041 244.357559,431.571045 236.902786,430.958038 
	C229.272980,430.330627 221.594559,430.124725 214.010254,429.161102 
	C206.268997,428.177551 198.554688,426.771545 190.938217,425.062042 
	C176.886627,421.908142 163.634888,416.581512 150.840149,409.180237 
z"/>
<path fill="currentColor" opacity="1.000000" stroke="none" 
	d="
M280.873596,162.879425 
	C286.316956,156.609848 291.545166,150.623047 296.773407,144.636246 
	C296.355225,144.290344 295.937042,143.944427 295.518860,143.598526 
	C271.177246,163.341385 251.859344,187.235260 237.833313,215.656357 
	C234.400436,199.839035 241.131485,161.970963 260.002258,137.141602 
	C284.929718,104.343109 319.005371,89.860153 359.670258,86.997810 
	C362.497192,122.841972 358.312042,156.451187 334.415039,184.664597 
	C311.920380,211.222382 281.536530,220.781219 247.187057,223.203430 
	C254.882996,200.621262 266.366119,181.119781 280.873596,162.879425 
M299.740112,141.976242 
	C299.296082,141.814407 298.852020,141.652588 297.893494,141.990875 
	C298.006805,142.386276 298.120117,142.781677 298.233429,143.177078 
	C298.602142,142.898193 298.970825,142.619308 299.740112,141.976242 
z"/>
<path fill="currentColor" opacity="1.000000" stroke="none" 
	d="
M160.179474,161.724579 
	C156.208542,143.568573 157.317566,126.036667 162.062500,108.092606 
	C195.560852,116.097160 220.805710,133.409088 233.771103,165.965485 
	C234.339737,167.393341 234.522751,169.210297 234.219131,170.711227 
	C232.440735,179.502686 230.463837,188.253983 228.417221,197.646057 
	C221.659821,183.678238 213.295135,171.195694 200.814301,161.229248 
	C206.715683,171.007843 212.706650,179.882233 217.594711,189.327408 
	C222.585526,198.971146 224.997726,209.507797 225.155701,221.087357 
	C192.937393,212.381912 169.254166,195.364624 160.179474,161.724579 
z"/>
</svg>