<svg version="1.1" id="Layer_1" xmlns="http://www.w3.org/2000/svg" xmlns:xlink="http://www.w3.org/1999/xlink" x="0px" y="0px" viewBox="0 0 2048 1536" enable-background="new 0 0 2048 1536" xml:space="preserve">
<path fill='none' opacity="1.000000" stroke="none"
	d=
"M1269.000000,1537.000000 
	C846.000000,1537.000000 423.500000,1537.000000 1.000000,1537.000000 
	C1.000000,1025.000000 1.000000,513.000000 1.000000,1.000000 
	C683.666687,1.000000 1366.333374,1.000000 2049.000000,1.000000 
	C2049.000000,513.000000 2049.000000,1025.000000 2049.000000,1537.000000 
	C1789.166626,1537.000000 1529.333374,1537.000000 1269.000000,1537.000000 
M1385.627808,202.863052 
	C1363.826904,200.246567 1342.087280,196.499619 1320.208862,195.310349 
	C1294.969360,193.938385 1269.636475,194.789627 1244.413818,197.879410 
	C1212.536377,201.784393 1181.388306,208.725220 1151.086304,219.229340 
	C1107.193604,234.444672 1066.408569,255.707642 1029.098511,283.473541 
	C1026.374268,285.500946 1024.090820,285.574066 1021.431213,283.652283 
	C1016.031921,279.750916 1010.664795,275.794037 1005.121521,272.104736 
	C967.156067,246.836777 926.487854,227.301788 882.795898,214.017410 
	C847.225159,203.202286 810.857666,196.844223 773.814636,195.222488 
	C740.843628,193.779022 707.937073,195.398193 675.252136,200.896683 
	C613.927368,211.213226 557.199646,233.323761 504.933167,266.797119 
	C473.275757,287.071655 444.506348,310.897552 418.818115,338.495728 
	C402.434052,356.097900 387.305603,374.617859 373.753662,394.439331 
	C347.313873,433.110870 327.553864,475.006470 313.959900,519.796326 
	C302.484467,557.606079 295.324677,596.371643 295.227783,635.806824 
	C294.737701,835.304443 294.898621,1034.804077 295.124146,1234.302734 
	C295.154907,1261.495972 305.151733,1285.605103 323.393524,1305.674072 
	C350.198456,1335.163940 383.950195,1346.961060 423.393494,1342.065186 
	C477.698883,1335.324219 519.994934,1287.169556 519.997070,1232.392212 
	C520.004578,1040.559937 519.989502,848.727722 520.038269,656.895508 
	C520.040222,649.249878 520.458862,641.595337 520.931580,633.960327 
	C523.134888,598.375366 533.806091,565.362061 551.727966,534.677979 
	C573.315125,497.718719 602.967590,468.848022 640.497864,448.341156 
	C684.219482,424.451263 730.920349,415.503693 780.440796,421.881897 
	C830.890625,428.379822 874.237305,449.820557 911.013367,484.622406 
	C931.288452,503.809174 947.105225,526.338013 959.305786,551.496094 
	C974.095398,581.992615 981.864014,614.152405 981.920044,647.946167 
	C982.122986,770.445129 982.000427,892.944641 981.997131,1015.443909 
	C981.997070,1018.110291 982.069275,1020.783325 981.913452,1023.441895 
	C980.909668,1040.557861 963.778503,1052.767090 947.944458,1047.693115 
	C935.563110,1043.725464 929.012207,1034.334961 929.010498,1020.323486 
	C928.995544,899.490845 929.046326,778.658142 928.917236,657.825623 
	C928.906372,647.702454 928.471313,637.468506 926.968750,627.476196 
	C916.842773,560.136963 879.868896,513.121155 817.670166,486.257874 
	C792.591980,475.426727 766.002197,471.768890 738.519226,473.778717 
	C714.014587,475.570801 690.905029,481.796204 669.246399,493.057526 
	C643.253601,506.572357 621.609192,525.332581 605.054443,549.618835 
	C585.744446,577.947205 574.148315,609.105652 574.101257,643.611389 
	C573.875732,808.943481 573.999695,974.276001 574.000793,1139.608398 
	C574.000916,1151.275024 573.589661,1162.960327 574.106445,1174.604248 
	C575.165771,1198.471924 595.442627,1214.604980 618.214905,1213.632690 
	C643.054443,1212.572144 659.325378,1192.051636 659.260925,1169.072510 
	C658.780823,997.741516 658.940918,826.408508 659.055481,655.076294 
	C659.076111,624.219788 669.949646,597.917114 694.872864,578.815247 
	C721.424194,558.465576 751.103882,553.202576 782.550903,565.010681 
	C820.528748,579.271179 842.989624,613.050903 842.994507,653.625916 
	C843.009277,776.791870 842.898804,899.957947 843.065918,1023.123718 
	C843.111816,1056.980103 856.109253,1085.308594 881.880615,1107.421387 
	C920.835388,1140.845947 975.075256,1144.114258 1017.722412,1115.843750 
	C1024.824951,1111.135498 1025.173218,1111.142212 1032.371582,1115.908691 
	C1054.574707,1130.610718 1078.879761,1136.761841 1105.440430,1134.153198 
	C1135.747314,1131.176392 1160.757202,1118.112427 1180.517578,1095.031982 
	C1198.115967,1074.476685 1206.958862,1050.553833 1206.972534,1023.522583 
	C1207.035278,900.189941 1206.877563,776.857117 1207.083984,653.524780 
	C1207.137451,621.537903 1219.909302,595.498169 1245.963135,576.301575 
	C1280.412354,550.919067 1331.011597,554.403564 1361.786743,584.255615 
	C1381.836792,603.704407 1390.972290,627.592346 1390.978882,655.181213 
	C1391.020264,827.180237 1391.026855,999.179199 1390.953003,1171.178223 
	C1390.946777,1185.856934 1396.748413,1197.399902 1408.625732,1205.638550 
	C1423.219360,1215.761475 1438.776611,1216.535034 1454.397949,1208.198364 
	C1469.108276,1200.347778 1476.020874,1187.666748 1476.018066,1171.003296 
	C1475.988037,994.337646 1476.000366,817.671936 1475.989624,641.006287 
	C1475.989502,638.509094 1476.010132,635.993652 1475.738892,633.517639 
	C1473.173218,610.087341 1466.700195,587.866760 1455.542847,567.006287 
	C1437.510498,533.291809 1411.231201,507.968628 1377.080566,491.236176 
	C1345.061890,475.548279 1311.113892,470.126617 1275.551270,474.815735 
	C1238.688477,479.676270 1206.388062,494.532074 1179.208374,519.544006 
	C1140.068115,555.562622 1121.154907,600.940063 1121.064941,653.937195 
	C1120.859375,774.936157 1121.000122,895.935669 1120.998535,1016.934998 
	C1120.998535,1019.434875 1121.043091,1021.937073 1120.956177,1024.434326 
	C1120.442993,1039.155762 1104.617920,1051.503662 1090.154663,1048.494263 
	C1076.314575,1045.614502 1068.013916,1034.780640 1068.011963,1019.373474 
	C1067.995117,893.874207 1067.984253,768.374878 1068.057495,642.875671 
	C1068.061035,636.901733 1068.631714,630.899231 1069.348511,624.959595 
	C1072.879395,595.709778 1081.374390,568.017761 1095.446777,542.054565 
	C1114.151611,507.544769 1139.701904,479.273407 1172.569458,457.839386 
	C1202.594238,438.259155 1235.342651,425.896179 1271.109741,421.625214 
	C1300.588257,418.105164 1329.684326,419.781128 1358.237305,427.703979 
	C1411.487183,442.479645 1454.561157,472.141968 1486.844116,517.178284 
	C1514.975098,556.422302 1529.751831,600.350586 1529.844482,648.472961 
	C1530.219238,842.971130 1529.994629,1037.470459 1530.035034,1231.969360 
	C1530.035889,1236.281372 1530.299927,1240.628662 1530.878784,1244.900146 
	C1539.440430,1308.076416 1595.038086,1350.560425 1658.047119,1342.144531 
	C1713.600952,1334.724487 1754.995483,1287.383057 1754.997437,1231.225830 
	C1755.004028,1038.893555 1754.964233,846.561340 1755.046021,654.229126 
	C1755.055908,630.707947 1753.536133,607.342957 1750.174683,584.069763 
	C1741.584106,524.591858 1721.642822,469.127289 1690.962158,417.553284 
	C1669.223389,381.010773 1642.866821,348.147034 1611.734375,319.050018 
	C1594.653687,303.086060 1576.723755,288.262939 1557.487671,275.054138 
	C1505.443970,239.317307 1448.481567,215.141190 1385.627808,202.863052 z"/>
<path fill="currentColor" opacity="1.000000" stroke="none" 
	d="
M1386.050537,202.929947 
	C1448.481567,215.141190 1505.443970,239.317307 1557.487671,275.054138 
	C1576.723755,288.262939 1594.653687,303.086060 1611.734375,319.050018 
	C1642.866821,348.147034 1669.223389,381.010773 1690.962158,417.553284 
	C1721.642822,469.127289 1741.584106,524.591858 1750.174683,584.069763 
	C1753.536133,607.342957 1755.055908,630.707947 1755.046021,654.229126 
	C1754.964233,846.561340 1755.004028,1038.893555 1754.997437,1231.225830 
	C1754.995483,1287.383057 1713.600952,1334.724487 1658.047119,1342.144531 
	C1595.038086,1350.560425 1539.440430,1308.076416 1530.878784,1244.900146 
	C1530.299927,1240.628662 1530.035889,1236.281372 1530.035034,1231.969360 
	C1529.994629,1037.470459 1530.219238,842.971130 1529.844482,648.472961 
	C1529.751831,600.350586 1514.975098,556.422302 1486.844116,517.178284 
	C1454.561157,472.141968 1411.487183,442.479645 1358.237305,427.703979 
	C1329.684326,419.781128 1300.588257,418.105164 1271.109741,421.625214 
	C1235.342651,425.896179 1202.594238,438.259155 1172.569458,457.839386 
	C1139.701904,479.273407 1114.151611,507.544769 1095.446777,542.054565 
	C1081.374390,568.017761 1072.879395,595.709778 1069.348511,624.959595 
	C1068.631714,630.899231 1068.061035,636.901733 1068.057495,642.875671 
	C1067.984253,768.374878 1067.995117,893.874207 1068.011963,1019.373474 
	C1068.013916,1034.780640 1076.314575,1045.614502 1090.154663,1048.494263 
	C1104.617920,1051.503662 1120.442993,1039.155762 1120.956177,1024.434326 
	C1121.043091,1021.937073 1120.998535,1019.434875 1120.998535,1016.934998 
	C1121.000122,895.935669 1120.859375,774.936157 1121.064941,653.937195 
	C1121.154907,600.940063 1140.068115,555.562622 1179.208374,519.544006 
	C1206.388062,494.532074 1238.688477,479.676270 1275.551270,474.815735 
	C1311.113892,470.126617 1345.061890,475.548279 1377.080566,491.236176 
	C1411.231201,507.968628 1437.510498,533.291809 1455.542847,567.006287 
	C1466.700195,587.866760 1473.173218,610.087341 1475.738892,633.517639 
	C1476.010132,635.993652 1475.989502,638.509094 1475.989624,641.006287 
	C1476.000366,817.671936 1475.988037,994.337646 1476.018066,1171.003296 
	C1476.020874,1187.666748 1469.108276,1200.347778 1454.397949,1208.198364 
	C1438.776611,1216.535034 1423.219360,1215.761475 1408.625732,1205.638550 
	C1396.748413,1197.399902 1390.946777,1185.856934 1390.953003,1171.178223 
	C1391.026855,999.179199 1391.020264,827.180237 1390.978882,655.181213 
	C1390.972290,627.592346 1381.836792,603.704407 1361.786743,584.255615 
	C1331.011597,554.403564 1280.412354,550.919067 1245.963135,576.301575 
	C1219.909302,595.498169 1207.137451,621.537903 1207.083984,653.524780 
	C1206.877563,776.857117 1207.035278,900.189941 1206.972534,1023.522583 
	C1206.958862,1050.553833 1198.115967,1074.476685 1180.517578,1095.031982 
	C1160.757202,1118.112427 1135.747314,1131.176392 1105.440430,1134.153198 
	C1078.879761,1136.761841 1054.574707,1130.610718 1032.371582,1115.908691 
	C1025.173218,1111.142212 1024.824951,1111.135498 1017.722412,1115.843750 
	C975.075256,1144.114258 920.835388,1140.845947 881.880615,1107.421387 
	C856.109253,1085.308594 843.111816,1056.980103 843.065918,1023.123718 
	C842.898804,899.957947 843.009277,776.791870 842.994507,653.625916 
	C842.989624,613.050903 820.528748,579.271179 782.550903,565.010681 
	C751.103882,553.202576 721.424194,558.465576 694.872864,578.815247 
	C669.949646,597.917114 659.076111,624.219788 659.055481,655.076294 
	C658.940918,826.408508 658.780823,997.741516 659.260925,1169.072510 
	C659.325378,1192.051636 643.054443,1212.572144 618.214905,1213.632690 
	C595.442627,1214.604980 575.165771,1198.471924 574.106445,1174.604248 
	C573.589661,1162.960327 574.000916,1151.275024 574.000793,1139.608398 
	C573.999695,974.276001 573.875732,808.943481 574.101257,643.611389 
	C574.148315,609.105652 585.744446,577.947205 605.054443,549.618835 
	C621.609192,525.332581 643.253601,506.572357 669.246399,493.057526 
	C690.905029,481.796204 714.014587,475.570801 738.519226,473.778717 
	C766.002197,471.768890 792.591980,475.426727 817.670166,486.257874 
	C879.868896,513.121155 916.842773,560.136963 926.968750,627.476196 
	C928.471313,637.468506 928.906372,647.702454 928.917236,657.825623 
	C929.046326,778.658142 928.995544,899.490845 929.010498,1020.323486 
	C929.012207,1034.334961 935.563110,1043.725464 947.944458,1047.693115 
	C963.778503,1052.767090 980.909668,1040.557861 981.913452,1023.441895 
	C982.069275,1020.783325 981.997070,1018.110291 981.997131,1015.443909 
	C982.000427,892.944641 982.122986,770.445129 981.920044,647.946167 
	C981.864014,614.152405 974.095398,581.992615 959.305786,551.496094 
	C947.105225,526.338013 931.288452,503.809174 911.013367,484.622406 
	C874.237305,449.820557 830.890625,428.379822 780.440796,421.881897 
	C730.920349,415.503693 684.219482,424.451263 640.497864,448.341156 
	C602.967590,468.848022 573.315125,497.718719 551.727966,534.677979 
	C533.806091,565.362061 523.134888,598.375366 520.931580,633.960327 
	C520.458862,641.595337 520.040222,649.249878 520.038269,656.895508 
	C519.989502,848.727722 520.004578,1040.559937 519.997070,1232.392212 
	C519.994934,1287.169556 477.698883,1335.324219 423.393494,1342.065186 
	C383.950195,1346.961060 350.198456,1335.163940 323.393524,1305.674072 
	C305.151733,1285.605103 295.154907,1261.495972 295.124146,1234.302734 
	C294.898621,1034.804077 294.737701,835.304443 295.227783,635.806824 
	C295.324677,596.371643 302.484467,557.606079 313.959900,519.796326 
	C327.553864,475.006470 347.313873,433.110870 373.753662,394.439331 
	C387.305603,374.617859 402.434052,356.097900 418.818115,338.495728 
	C444.506348,310.897552 473.275757,287.071655 504.933167,266.797119 
	C557.199646,233.323761 613.927368,211.213226 675.252136,200.896683 
	C707.937073,195.398193 740.843628,193.779022 773.814636,195.222488 
	C810.857666,196.844223 847.225159,203.202286 882.795898,214.017410 
	C926.487854,227.301788 967.156067,246.836777 1005.121521,272.104736 
	C1010.664795,275.794037 1016.031921,279.750916 1021.431213,283.652283 
	C1024.090820,285.574066 1026.374268,285.500946 1029.098511,283.473541 
	C1066.408569,255.707642 1107.193604,234.444672 1151.086304,219.229340 
	C1181.388306,208.725220 1212.536377,201.784393 1244.413818,197.879410 
	C1269.636475,194.789627 1294.969360,193.938385 1320.208862,195.310349 
	C1342.087280,196.499619 1363.826904,200.246567 1386.050537,202.929947 
M804.103455,338.301575 
	C814.172119,340.553864 824.337097,342.446899 834.293274,345.118500 
	C886.896790,359.233887 932.550537,385.771698 971.740906,423.372009 
	C991.036621,441.884827 1007.574463,462.756989 1021.473022,485.661316 
	C1022.385742,487.165436 1023.520874,488.534546 1024.819702,490.337219 
	C1025.962036,489.018494 1026.759888,488.231903 1027.403442,487.334564 
	C1036.905273,474.084564 1046.475952,460.881592 1055.738037,447.465637 
	C1056.694946,446.079529 1056.642212,442.712555 1055.609863,441.430878 
	C1041.634521,424.078125 1028.499756,405.850372 1012.919373,390.044830 
	C997.930054,374.838928 980.935608,361.400177 963.770325,348.595062 
	C933.768127,326.213684 900.341003,310.035797 864.752686,298.536499 
	C836.932678,289.547363 808.445435,283.650177 779.179199,281.816162 
	C751.854614,280.103882 724.587830,280.312775 697.481506,284.440979 
	C647.123962,292.110352 600.131165,309.009674 556.805542,335.998962 
	C518.531189,359.841583 485.478271,389.414520 457.939423,425.120514 
	C434.050537,456.094116 415.469635,490.015656 402.291321,526.828247 
	C389.229797,563.314697 381.214661,600.970642 381.149780,639.739685 
	C380.823364,834.730347 380.999695,1029.721802 381.003387,1224.713013 
	C381.003448,1227.379150 380.922821,1230.054199 381.102509,1232.709961 
	C382.322937,1250.746704 401.688293,1262.453247 418.057312,1254.869629 
	C429.393616,1249.617798 434.092010,1240.464722 434.084045,1227.955078 
	C433.962585,1036.630371 434.002625,845.305725 433.996155,653.981018 
	C433.995392,631.775818 435.833527,609.705566 440.369873,587.989746 
	C454.420074,520.730530 486.579865,463.681458 537.273132,417.092346 
	C563.163025,393.298523 592.159607,374.432861 624.322937,360.346893 
	C662.166565,343.773224 701.793579,334.622894 743.046814,334.269562 
	C763.101135,334.097809 783.179871,336.773346 804.103455,338.301575 
M1275.812134,281.109528 
	C1271.336060,281.489960 1266.849365,281.774597 1262.385498,282.266327 
	C1231.636475,285.653290 1201.643799,292.297485 1172.558350,302.960907 
	C1144.742798,313.158783 1118.518677,326.424835 1093.954346,342.994354 
	C1090.965820,345.010254 1090.359131,346.566467 1093.002197,349.635437 
	C1100.490845,358.331024 1107.775024,367.215881 1114.838379,376.261505 
	C1123.164429,386.924408 1123.020142,387.019501 1134.683594,379.880707 
	C1181.001343,351.530884 1231.498291,336.661987 1285.558838,334.151520 
	C1318.181763,332.636597 1350.414185,336.251801 1381.963867,344.994446 
	C1440.529419,361.223328 1490.601440,391.344666 1531.834595,436.178040 
	C1555.274292,461.664398 1574.167358,490.007263 1588.356079,521.588379 
	C1606.295410,561.517456 1615.768433,603.448181 1615.848022,647.058228 
	C1616.199463,839.541260 1615.999756,1032.025269 1616.000854,1224.509033 
	C1616.000854,1227.008789 1615.896484,1229.515503 1616.044434,1232.006958 
	C1616.716675,1243.328613 1622.625732,1251.184082 1632.927368,1255.230103 
	C1642.853760,1259.128784 1652.209229,1257.364014 1660.346680,1250.150757 
	C1667.291138,1243.994751 1669.056396,1236.069458 1669.053101,1227.162720 
	C1668.982788,1035.678955 1669.072754,844.195129 1668.871338,652.711548 
	C1668.853882,636.112793 1667.874146,619.412903 1665.873779,602.938171 
	C1660.643921,559.867737 1647.492920,519.182434 1627.414185,480.667572 
	C1603.682007,435.145111 1572.027344,396.158966 1532.231689,363.782410 
	C1491.072998,330.296844 1444.821289,306.784882 1393.601562,292.877411 
	C1355.276367,282.471161 1316.238403,279.735199 1275.812134,281.109528 z"/>
<path fill="none" opacity="1.000000" stroke="none" 
	d="
M803.675537,338.230743 
	C783.179871,336.773346 763.101135,334.097809 743.046814,334.269562 
	C701.793579,334.622894 662.166565,343.773224 624.322937,360.346893 
	C592.159607,374.432861 563.163025,393.298523 537.273132,417.092346 
	C486.579865,463.681458 454.420074,520.730530 440.369873,587.989746 
	C435.833527,609.705566 433.995392,631.775818 433.996155,653.981018 
	C434.002625,845.305725 433.962585,1036.630371 434.084045,1227.955078 
	C434.092010,1240.464722 429.393616,1249.617798 418.057312,1254.869629 
	C401.688293,1262.453247 382.322937,1250.746704 381.102509,1232.709961 
	C380.922821,1230.054199 381.003448,1227.379150 381.003387,1224.713013 
	C380.999695,1029.721802 380.823364,834.730347 381.149780,639.739685 
	C381.214661,600.970642 389.229797,563.314697 402.291321,526.828247 
	C415.469635,490.015656 434.050537,456.094116 457.939423,425.120514 
	C485.478271,389.414520 518.531189,359.841583 556.805542,335.998962 
	C600.131165,309.009674 647.123962,292.110352 697.481506,284.440979 
	C724.587830,280.312775 751.854614,280.103882 779.179199,281.816162 
	C808.445435,283.650177 836.932678,289.547363 864.752686,298.536499 
	C900.341003,310.035797 933.768127,326.213684 963.770325,348.595062 
	C980.935608,361.400177 997.930054,374.838928 1012.919373,390.044830 
	C1028.499756,405.850372 1041.634521,424.078125 1055.609863,441.430878 
	C1056.642212,442.712555 1056.694946,446.079529 1055.738037,447.465637 
	C1046.475952,460.881592 1036.905273,474.084564 1027.403442,487.334564 
	C1026.759888,488.231903 1025.962036,489.018494 1024.819702,490.337219 
	C1023.520874,488.534546 1022.385742,487.165436 1021.473022,485.661316 
	C1007.574463,462.756989 991.036621,441.884827 971.740906,423.372009 
	C932.550537,385.771698 886.896790,359.233887 834.293274,345.118500 
	C824.337097,342.446899 814.172119,340.553864 803.675537,338.230743 z"/>
<path fill="none" opacity="1.000000" stroke="none" 
	d="
M1276.285522,281.084930 
	C1316.238403,279.735199 1355.276367,282.471161 1393.601562,292.877411 
	C1444.821289,306.784882 1491.072998,330.296844 1532.231689,363.782410 
	C1572.027344,396.158966 1603.682007,435.145111 1627.414185,480.667572 
	C1647.492920,519.182434 1660.643921,559.867737 1665.873779,602.938171 
	C1667.874146,619.412903 1668.853882,636.112793 1668.871338,652.711548 
	C1669.072754,844.195129 1668.982788,1035.678955 1669.053101,1227.162720 
	C1669.056396,1236.069458 1667.291138,1243.994751 1660.346680,1250.150757 
	C1652.209229,1257.364014 1642.853760,1259.128784 1632.927368,1255.230103 
	C1622.625732,1251.184082 1616.716675,1243.328613 1616.044434,1232.006958 
	C1615.896484,1229.515503 1616.000854,1227.008789 1616.000854,1224.509033 
	C1615.999756,1032.025269 1616.199463,839.541260 1615.848022,647.058228 
	C1615.768433,603.448181 1606.295410,561.517456 1588.356079,521.588379 
	C1574.167358,490.007263 1555.274292,461.664398 1531.834595,436.178040 
	C1490.601440,391.344666 1440.529419,361.223328 1381.963867,344.994446 
	C1350.414185,336.251801 1318.181763,332.636597 1285.558838,334.151520 
	C1231.498291,336.661987 1181.001343,351.530884 1134.683594,379.880707 
	C1123.020142,387.019501 1123.164429,386.924408 1114.838379,376.261505 
	C1107.775024,367.215881 1100.490845,358.331024 1093.002197,349.635437 
	C1090.359131,346.566467 1090.965820,345.010254 1093.954346,342.994354 
	C1118.518677,326.424835 1144.742798,313.158783 1172.558350,302.960907 
	C1201.643799,292.297485 1231.636475,285.653290 1262.385498,282.266327 
	C1266.849365,281.774597 1271.336060,281.489960 1276.285522,281.084930 z"/>
</svg>